<svg width="150" height="150" viewBox="0 0 150 150" fill="none" xmlns="http://www.w3.org/2000/svg">
<g clip-path="url(#clip0)">
<path d="M87.6377 120C105.587 120 120.138 105.449 120.138 87.5C120.138 69.5507 105.587 55 87.6377 55C69.6884 55 55.1377 69.5507 55.1377 87.5C55.157 105.441 69.6964 119.981 87.6377 120ZM87.6377 60C102.826 60 115.138 72.3122 115.138 87.5C115.138 102.688 102.826 115 87.6377 115C72.4499 115 60.1377 102.688 60.1377 87.5C60.1556 72.3196 72.4573 60.0179 87.6377 60Z" fill="white"/>
<path d="M51.0577 11.4325C50.074 10.5018 48.7528 10.0132 47.4002 10.08C33.6355 10.842 20.7865 17.2187 11.8552 27.72C-0.0890827 41.7996 -3.2939 61.3191 3.52137 78.4787C10.3366 95.6382 26.0606 107.64 44.4102 109.688C46.3349 109.895 48.2693 109.999 50.2052 110C50.6802 110 51.1502 109.975 51.6227 109.96C57.7112 119.773 67.5401 126.677 78.8367 129.076C90.1333 131.474 101.919 129.16 111.47 122.668L129.79 145.638C131.791 148.201 134.795 149.782 138.04 149.98C138.265 149.993 138.488 150 138.713 150C143.535 149.977 147.815 146.908 149.384 142.348C150.953 137.788 149.467 132.735 145.68 129.75L122.79 111.355C129.428 101.605 131.703 89.5299 129.07 78.0324C126.437 66.535 119.132 56.6543 108.913 50.765C109.754 49.8095 110.193 48.5647 110.135 47.2925C108.804 21.7471 88.393 1.33374 62.8477 3.80161e-05C61.5006 -0.0760389 60.1826 0.412195 59.2102 1.34754C58.2083 2.29857 57.64 3.61865 57.6377 5.00004V47.5C57.6377 50.2615 59.8763 52.5 62.6377 52.5H63.5802C61.4281 53.9814 59.4149 55.6549 57.5652 57.5H52.6152V15.05C52.6128 13.6819 52.0499 12.3745 51.0577 11.4325ZM5.28768 65.15C3.84277 52.8043 7.60376 40.4144 15.6677 30.955C23.6984 21.5135 35.241 15.767 47.6152 15.05V59L16.5627 90.04C10.2871 83.1311 6.34275 74.4238 5.28768 65.15ZM145 138.295C145.118 140.109 144.442 141.884 143.148 143.16C141.889 144.446 140.131 145.118 138.335 145C136.514 144.884 134.831 143.992 133.713 142.55L121.48 127.2L127.283 121.383L142.565 133.663C144 134.789 144.886 136.474 145 138.295ZM123.373 118.233L118.353 123.268L115.425 119.595C116.957 118.266 118.393 116.829 119.723 115.298L123.373 118.233ZM62.6377 47.5L62.5777 5.00004C85.5483 6.19165 103.914 24.5311 105.138 47.5H101.86C92.6715 44.1666 82.6039 44.1666 73.4152 47.5H62.6377ZM87.6377 50C108.348 50 125.138 66.7894 125.138 87.5C125.138 108.211 108.348 125 87.6377 125C66.927 125 50.1377 108.211 50.1377 87.5C50.1611 66.7991 66.9367 50.0235 87.6377 50ZM53.3427 62.5C44.277 74.8138 42.5931 91.0722 48.9427 104.983C47.6177 104.948 46.2827 104.86 44.9427 104.715C35.7036 103.673 27.0196 99.7753 20.1002 93.565L51.1727 62.5H53.3427Z" fill="white"/>
<path d="M23.4354 37.3801C27.4448 32.6545 32.6327 29.0734 38.4729 27.0001C39.7742 26.5383 40.4548 25.1089 39.9929 23.8076C39.5311 22.5063 38.1017 21.8258 36.8004 22.2876C30.1307 24.6543 24.2048 28.7414 19.6229 34.1351C15.8559 38.5474 13.1051 43.734 11.5654 49.3276C11.1988 50.6593 11.9812 52.036 13.3129 52.4026C14.6446 52.7692 16.0213 51.9868 16.3879 50.6551C17.7346 45.7666 20.1407 41.2345 23.4354 37.3801Z" fill="white"/>
<path d="M12.6377 62.5C14.0184 62.5 15.1377 61.3807 15.1377 60C15.1377 58.6193 14.0184 57.5 12.6377 57.5C11.257 57.5 10.1377 58.6193 10.1377 60C10.1377 61.3807 11.257 62.5 12.6377 62.5Z" fill="white"/>
<path d="M70.1377 85.0001C70.8004 85.0006 71.4361 84.738 71.9052 84.2701L84.4052 71.77C85.0371 71.1386 85.2842 70.218 85.0533 69.355C84.8224 68.492 84.1486 67.8177 83.2858 67.5862C82.4229 67.3547 81.5021 67.6011 80.8702 68.2325L68.3702 80.7325C67.6555 81.4475 67.4417 82.5226 67.8285 83.4567C68.2154 84.3907 69.1267 84.9998 70.1377 85.0001Z" fill="white"/>
<path d="M68.3699 99.27C69.3462 100.246 70.9287 100.246 71.9049 99.27L99.4049 71.77C100.037 71.1386 100.284 70.218 100.053 69.355C99.8221 68.492 99.1483 67.8177 98.2855 67.5862C97.4226 67.3547 96.5018 67.6011 95.8699 68.2325L68.3699 95.7325C67.9005 96.2015 67.6367 96.8378 67.6367 97.5013C67.6367 98.1648 67.9005 98.8011 68.3699 99.27Z" fill="white"/>
</g>
<defs>
<clipPath id="clip0">
<rect width="150" height="150" fill="white"/>
</clipPath>
</defs>
</svg>
