<svg width="373" height="307" viewBox="0 0 373 307" fill="none" xmlns="http://www.w3.org/2000/svg">
<g clip-path="url(#clip0)">
<path d="M371.489 297.35L332.247 255.279C331.024 253.965 329.197 253.129 327.196 252.965C300.573 250.789 286.359 246.13 274.933 242.385C264.826 239.073 254.378 235.649 240.894 235.649C220.356 235.649 204.655 244.673 194.006 254.902V254.679C199.937 243.409 215.749 225.624 240.311 225.624C250.879 225.624 259.107 228.322 268.643 231.447C276.598 234.054 286.501 237.3 300.976 239.806C304.91 240.488 308.767 238.413 309.594 235.171C310.418 231.932 307.9 228.751 303.969 228.072C290.716 225.776 281.848 222.87 274.018 220.303C264.013 217.023 253.667 213.632 240.311 213.632C214.74 213.632 196.743 227.753 186.729 240.614C176.716 227.753 158.719 213.632 133.145 213.632C119.792 213.632 109.443 217.023 99.4356 220.305C88.1434 224.006 74.0885 228.613 47.7636 230.763C43.7646 231.091 40.8456 234.026 41.2407 237.321C41.6386 240.617 45.2028 243.022 49.2018 242.697C77.5617 240.378 93.3134 235.215 104.816 231.447C114.346 228.322 122.577 225.624 133.145 225.624C157.71 225.624 173.524 243.411 179.453 254.682V254.902C168.801 244.673 153.103 235.646 132.562 235.646C119.081 235.646 108.63 239.073 98.5176 242.387C87.0974 246.13 72.8862 250.789 46.2601 252.965C44.262 253.129 42.4344 253.965 41.2094 255.279L1.9694 297.35C0.278262 299.16 -0.0144889 301.606 1.21052 303.655C2.43553 305.702 4.96512 307 7.73631 307H365.723C368.494 307 371.023 305.702 372.248 303.655C373.473 301.606 373.181 299.16 371.489 297.35ZM240.894 247.639C251.589 247.639 259.914 250.367 269.561 253.529C280.748 257.197 295.917 262.167 322.611 264.624L350.875 294.926C302.247 294.061 279.168 286.496 263.589 281.39C254.548 278.427 248.577 276.469 240.894 276.469C227.447 276.469 218.23 284.786 214.41 291.93C214.376 291.986 214.342 292.042 214.308 292.101L212.651 295.008H194.006V277.064C200.003 265.657 216.013 247.639 240.894 247.639ZM50.8475 264.624C77.5418 262.167 92.708 257.195 103.904 253.527C113.542 250.367 121.869 247.639 132.562 247.639C157.443 247.639 173.456 265.657 179.453 277.064V295.008H160.805L159.151 292.101C159.117 292.042 159.083 291.986 159.049 291.93C155.226 284.786 146.011 276.469 132.565 276.469C124.882 276.469 118.911 278.427 109.869 281.39C94.2912 286.496 71.2093 294.061 22.5842 294.926L50.8475 264.624ZM115.25 292.532C123.259 289.906 127.67 288.461 132.562 288.461C138.84 288.461 142.783 292.532 144.602 295.008H107.55C110.319 294.148 112.865 293.314 115.25 292.532ZM228.857 295.008C230.676 292.532 234.618 288.461 240.894 288.461C245.788 288.461 250.2 289.906 258.212 292.534C260.594 293.314 263.143 294.148 265.909 295.008H228.857Z" fill="#F5F5F5" fill-opacity="0.95"/>
<path d="M324 242.675L324.264 242.697C324.505 242.715 324.747 242.727 324.983 242.727C328.684 242.727 331.847 240.413 332.217 237.316C332.609 234.021 329.687 231.086 325.688 230.763L325.429 230.742C321.43 230.414 317.869 232.824 317.474 236.12C317.079 239.415 320.001 242.35 324 242.675Z" fill="#F5F5F5" fill-opacity="0.95"/>
<path d="M162.17 147.527C160.28 147.661 158.515 148.399 157.27 149.596C155.886 150.924 155.278 152.683 155.599 154.411C158.615 170.598 169.068 181.658 184.331 185.45C183.982 187.718 183.658 189.987 183.368 192.264L179.494 222.71C179.076 226.004 181.975 228.955 185.971 229.299C186.23 229.322 186.486 229.332 186.739 229.332C190.417 229.332 193.574 227.044 193.967 223.961L197.84 193.515C198.122 191.301 198.437 189.097 198.773 186.898C232.618 186.553 253.281 168.769 263.624 131.165C264.775 126.981 266.171 122.11 267.777 116.683C268.286 114.963 267.848 113.148 266.577 111.719C266.106 111.19 265.537 110.733 264.901 110.363L267.763 109.014C269.482 108.206 270.727 106.852 271.207 105.269C283.921 63.5773 302.532 8.15327 302.719 7.59817C303.348 5.73376 302.845 3.73584 301.369 2.23213C299.897 0.726081 297.623 -0.105409 295.29 0.0117024C292.826 0.126472 234.372 3.60702 186.324 68.0252C185.727 68.8239 185.147 69.6156 184.573 70.4096C183.689 71.6229 183.356 73.0563 183.629 74.4523L187.273 92.9395H174.918C172.002 92.9395 169.37 94.3729 168.224 96.5816C160.434 111.626 155.957 125.747 154.917 138.559C154.778 140.262 155.528 141.934 156.977 143.154L162.17 147.527ZM257.852 99.8701L238.419 109.021C235.634 110.333 234.218 112.994 234.938 115.57C235.657 118.146 238.34 120.032 241.54 120.21L251.616 120.767C250.814 123.55 250.084 126.138 249.43 128.513C238.928 166.701 219.533 174.24 200.904 174.877C211.58 121.828 238.596 72.5644 279.93 30.819C273.581 50.1189 264.915 76.8249 257.852 99.8701ZM179.781 104.934H195.825C197.957 104.934 199.984 104.161 201.368 102.821C202.749 101.482 203.349 99.7108 203.008 97.9752L198.423 74.7052C198.52 74.5717 198.619 74.4406 198.719 74.3071C221.659 43.5513 246.949 28.2449 264.125 20.82C268.192 19.061 272.006 17.6533 275.488 16.5197C250.451 40.476 229.907 67.2546 214.394 96.2069C201.152 120.917 191.795 146.794 186.466 173.36C178.542 170.685 174.292 164.961 172.013 159.496H179.454C182.384 159.496 185.028 158.049 186.162 155.823C187.296 153.601 186.702 151.031 184.652 149.305L169.702 136.723C170.879 126.979 174.261 116.313 179.781 104.934Z" fill="#F5F5F5" fill-opacity="0.95"/>
</g>
<defs>
<clipPath id="clip0">
<rect x="0.460449" width="372.539" height="307" fill="white"/>
</clipPath>
</defs>
</svg>
