<svg width="150" height="150" viewBox="0 0 150 150" fill="none" xmlns="http://www.w3.org/2000/svg">
<g clip-path="url(#clip0)">
<path d="M61.3 63.03C56.3018 65.8008 50.7124 67.3335 45 67.5H37.5C36.1193 67.5 35 68.6192 35 70C35 71.3807 36.1193 72.5 37.5 72.5H45C51.5559 72.3634 57.9777 70.6171 63.7 67.415C64.5041 66.9973 65.0192 66.1772 65.0465 65.2715C65.0737 64.3658 64.6087 63.5163 63.8312 63.0511C63.0536 62.5859 62.0852 62.5778 61.3 63.03Z" fill="white"/>
<path d="M78.75 25C73.9175 25 70 28.9175 70 33.75V34.7C65.4025 57.1075 45.8275 57.5 45 57.5H20C11.7157 57.5 5 64.2157 5 72.5C5 80.7843 11.7157 87.5 20 87.5V115C20 120.523 24.4772 125 30 125C35.5228 125 40 120.523 40 115V87.5H45C45.8325 87.5 65.3775 87.7725 70 110.3V111.25C70 116.083 73.9175 120 78.75 120C83.5825 120 87.5 116.083 87.5 111.25V75H95V122.5C95 126.642 98.3579 130 102.5 130H110V132.5C110 136.642 113.358 140 117.5 140H137.5C141.642 140 145 136.642 145 132.5V112.5C145 108.358 141.642 105 137.5 105H117.5C113.358 105 110 108.358 110 112.5V125H102.5C101.119 125 100 123.881 100 122.5V75H110V80C110 84.1421 113.358 87.5 117.5 87.5H137.5C141.642 87.5 145 84.1421 145 80V60C145 55.8579 141.642 52.5 137.5 52.5H117.5C113.358 52.5 110 55.8579 110 60V70H100V22.5C100 21.1193 101.119 20 102.5 20H110V27.5C110 31.6421 113.358 35 117.5 35H137.5C141.642 35 145 31.6421 145 27.5V7.5C145 3.35786 141.642 0 137.5 0H117.5C113.358 0 110 3.35786 110 7.5V15H102.5C98.3579 15 95 18.3579 95 22.5V70H87.5V33.75C87.5 28.9175 83.5825 25 78.75 25ZM115 112.5C115 111.119 116.119 110 117.5 110H137.5C138.881 110 140 111.119 140 112.5V132.5C140 133.881 138.881 135 137.5 135H117.5C116.119 135 115 133.881 115 132.5V112.5ZM115 60C115 58.6193 116.119 57.5 117.5 57.5H137.5C138.881 57.5 140 58.6193 140 60V80C140 81.3807 138.881 82.5 137.5 82.5H117.5C116.119 82.5 115 81.3807 115 80V60ZM115 7.5C115 6.11929 116.119 5 117.5 5H137.5C138.881 5 140 6.11929 140 7.5V27.5C140 28.8807 138.881 30 137.5 30H117.5C116.119 30 115 28.8807 115 27.5V7.5ZM10 72.5C10 66.9772 14.4772 62.5 20 62.5H25V82.5H20C14.4772 82.5 10 78.0229 10 72.5ZM30 120C27.2386 120 25 117.761 25 115V102.5H35V115C35 117.761 32.7614 120 30 120ZM35 97.5H25V87.5H35V97.5ZM45 82.5H30V62.5H45C55.1209 61.9809 64.3962 56.6939 70 48.25V96.75C64.3962 88.3061 55.1209 83.0191 45 82.5ZM82.5 111.25C82.5 113.321 80.8211 115 78.75 115C76.6789 115 75 113.321 75 111.25V33.75C75 31.6789 76.6789 30 78.75 30C80.8211 30 82.5 31.6789 82.5 33.75V111.25Z" fill="white"/>
<path d="M112.5 145C111.119 145 110 146.119 110 147.5C110 148.881 111.119 150 112.5 150H142.5C143.881 150 145 148.881 145 147.5C145 146.119 143.881 145 142.5 145H112.5Z" fill="white"/>
<path d="M112.5 92.5C111.119 92.5 110 93.6193 110 95C110 96.3807 111.119 97.5 112.5 97.5H142.5C143.881 97.5 145 96.3807 145 95C145 93.6193 143.881 92.5 142.5 92.5H112.5Z" fill="white"/>
<path d="M112.5 40C111.119 40 110 41.1193 110 42.5C110 43.8807 111.119 45 112.5 45H142.5C143.881 45 145 43.8807 145 42.5C145 41.1193 143.881 40 142.5 40H112.5Z" fill="white"/>
</g>
<defs>
<clipPath id="clip0">
<rect width="150" height="150" fill="white"/>
</clipPath>
</defs>
</svg>
