<svg width="150" height="150" viewBox="0 0 150 150" fill="none" xmlns="http://www.w3.org/2000/svg">
<path d="M125.806 45.9677C135.999 45.9936 144.852 38.963 147.136 29.0299C149.42 19.0967 144.527 8.90506 135.347 4.47647C126.167 0.0478764 115.144 2.56116 108.791 10.5314C102.438 18.5016 102.446 29.8073 108.81 37.7686L105.697 40.8871C88.2818 25.0873 61.7181 25.0873 44.3031 40.8871L41.1894 37.7734C48.4235 28.7237 47.3279 15.5992 38.6937 7.8741C30.0594 0.14903 16.8943 0.514586 8.70196 8.70688C0.509669 16.8992 0.144113 30.0643 7.86918 38.6986C15.5943 47.3329 28.7188 48.4284 37.7685 41.1944L40.887 44.3032C25.0873 61.7182 25.0873 88.2818 40.887 105.697L37.7733 108.81C28.7237 101.576 15.5991 102.672 7.87402 111.306C0.148952 119.941 0.514508 133.106 8.7068 141.298C16.8991 149.49 30.0642 149.856 38.6985 142.131C47.3328 134.406 48.4283 121.281 41.1943 112.231L44.3031 109.113C61.7181 124.913 88.2818 124.913 105.697 109.113L108.81 112.227C101.576 121.276 102.672 134.401 111.306 142.126C119.94 149.851 133.106 149.485 141.298 141.293C149.49 133.101 149.856 119.936 142.131 111.301C134.406 102.667 121.281 101.572 112.231 108.806L109.113 105.697C124.913 88.2818 124.913 61.7182 109.113 44.3032L112.227 41.1895C116.076 44.2848 120.867 45.9708 125.806 45.9677ZM118.548 39.4718V38.7097C118.548 34.7012 121.798 31.4516 125.806 31.4516C129.815 31.4516 133.064 34.7012 133.064 38.7097V39.4718C128.478 41.6814 123.135 41.6814 118.548 39.4718ZM120.968 21.7742C120.968 19.1018 123.134 16.9355 125.806 16.9355C128.479 16.9355 130.645 19.1018 130.645 21.7742C130.645 24.4465 128.479 26.6129 125.806 26.6129C123.134 26.6129 120.968 24.4465 120.968 21.7742ZM125.806 7.25806C132.689 7.24861 138.891 11.4085 141.494 17.7796C144.097 24.1507 142.581 31.4635 137.661 36.2758C137.18 33.9537 136.033 31.8218 134.361 30.1403C133.811 29.6021 133.211 29.1161 132.571 28.6887C135.389 25.9406 136.262 21.7592 134.779 18.113C133.295 14.4668 129.751 12.0825 125.815 12.0825C121.878 12.0825 118.334 14.4668 116.851 18.113C115.367 21.7592 116.24 25.9406 119.059 28.6887C116.432 30.453 114.6 33.174 113.952 36.271C109.035 31.4582 107.522 24.1476 110.124 17.7787C112.727 11.4098 118.926 7.25063 125.806 7.25806ZM7.25799 24.1935C7.25908 16.5078 12.4357 9.78638 19.8664 7.82261C27.297 5.85885 35.1184 9.14516 38.9166 15.8269C42.7147 22.5086 41.5371 30.9103 36.0483 36.2903C35.5688 33.9669 34.422 31.8338 32.7483 30.1524C32.1978 29.6142 31.5984 29.1282 30.958 28.7008C33.7763 25.9527 34.6493 21.7713 33.1659 18.1251C31.6825 14.4789 28.1383 12.0946 24.2019 12.0946C20.2655 12.0946 16.7214 14.4789 15.238 18.1251C13.7546 21.7713 14.6275 25.9527 17.4459 28.7008C14.8279 30.4718 13.0049 33.195 12.3652 36.2903C9.09975 33.1128 7.25775 28.7499 7.25799 24.1935ZM19.3548 21.7742C19.3548 19.1018 21.5211 16.9355 24.1935 16.9355C26.8658 16.9355 29.0322 19.1018 29.0322 21.7742C29.0322 24.4465 26.8658 26.6129 24.1935 26.6129C21.5211 26.6129 19.3548 24.4465 19.3548 21.7742ZM16.9354 39.4718V38.7097C16.9354 34.7012 20.185 31.4516 24.1935 31.4516C28.202 31.4516 31.4515 34.7012 31.4515 38.7097V39.4718C26.8651 41.6814 21.5219 41.6814 16.9354 39.4718ZM16.9354 141.085V140.323C16.9354 136.314 20.185 133.065 24.1935 133.065C28.202 133.065 31.4515 136.314 31.4515 140.323V141.085C26.8651 143.294 21.5219 143.294 16.9354 141.085ZM19.3548 123.387C19.3548 120.715 21.5211 118.548 24.1935 118.548C26.8658 118.548 29.0322 120.715 29.0322 123.387C29.0322 126.059 26.8658 128.226 24.1935 128.226C21.5211 128.226 19.3548 126.059 19.3548 123.387ZM36.0483 137.903C35.5688 135.58 34.422 133.447 32.7483 131.765C32.1978 131.227 31.5984 130.741 30.958 130.314C33.7763 127.566 34.6493 123.384 33.1659 119.738C31.6825 116.092 28.1383 113.707 24.2019 113.707C20.2655 113.707 16.7214 116.092 15.238 119.738C13.7546 123.384 14.6275 127.566 17.4459 130.314C14.8279 132.085 13.0049 134.808 12.3652 137.903C7.44379 133.09 5.92565 125.776 8.5247 119.402C11.1238 113.027 17.3228 108.86 24.2068 108.86C31.0908 108.86 37.2898 113.027 39.8889 119.402C42.4879 125.776 40.9698 133.09 36.0483 137.903ZM55.962 111.431C56.8919 107.637 60.0114 104.774 63.8709 104.173C66.051 108.292 70.3297 110.868 74.9902 110.868C79.6508 110.868 83.9295 108.292 86.1096 104.173C89.9732 104.765 93.1009 107.624 94.0378 111.419C82.1161 117.699 67.8644 117.699 55.9427 111.419L55.962 111.431ZM61.633 68.0323C56.3273 65.1677 55.5846 57.3436 55.6548 52.5823C60.492 54.7513 65.7572 55.7984 71.0564 55.6452C72.7814 55.6452 74.458 55.575 76.0693 55.5097C84.2757 55.1637 87.9677 55.2677 89.579 61.1226C90.0987 63.6938 89.4607 66.3634 87.8346 68.4218C87.1257 69.1071 86.9035 70.154 87.2731 71.0681C87.6427 71.9823 88.53 72.5806 89.516 72.5807C90.8522 72.5807 91.9354 73.6638 91.9354 75C91.9354 76.3362 90.8522 77.4194 89.516 77.4194C88.1799 77.4194 87.0967 78.5025 87.0967 79.8387C87.0967 85.1758 81.6701 89.5161 74.9999 89.5161C68.3298 89.5161 62.9031 85.1758 62.9031 79.8387C62.9031 78.5025 61.82 77.4194 60.4838 77.4194C59.1476 77.4194 58.0644 76.3362 58.0644 75C58.0644 73.6638 59.1476 72.5807 60.4838 72.5807C61.5917 72.5807 62.5581 71.8281 62.8295 70.7539C63.1009 69.6798 62.608 68.5585 61.633 68.0323ZM71.9491 94.1129C73.9704 94.4323 76.0294 94.4323 78.0507 94.1129C78.7055 96.9868 79.9822 99.6823 81.791 102.01C80.4241 104.48 77.8234 106.014 74.9999 106.014C72.1764 106.014 69.5757 104.48 68.2088 102.01C70.0166 99.6818 71.2933 96.9865 71.9491 94.1129ZM118.548 141.085V140.323C118.548 136.314 121.798 133.065 125.806 133.065C129.815 133.065 133.064 136.314 133.064 140.323V141.085C128.478 143.294 123.135 143.294 118.548 141.085ZM120.968 123.387C120.968 120.715 123.134 118.548 125.806 118.548C128.479 118.548 130.645 120.715 130.645 123.387C130.645 126.059 128.479 128.226 125.806 128.226C123.134 128.226 120.968 126.059 120.968 123.387ZM125.806 108.871C132.689 108.862 138.891 113.021 141.494 119.393C144.097 125.764 142.581 133.076 137.661 137.889C137.18 135.567 136.033 133.435 134.361 131.753C133.811 131.215 133.211 130.729 132.571 130.302C135.389 127.554 136.262 123.372 134.779 119.726C133.295 116.08 129.751 113.695 125.815 113.695C121.878 113.695 118.334 116.08 116.851 119.726C115.367 123.372 116.24 127.554 119.059 130.302C116.432 132.066 114.6 134.787 113.952 137.884C109.035 133.071 107.522 125.761 110.124 119.392C112.727 113.023 118.926 108.864 125.806 108.871ZM98.3298 108.835C96.391 103.467 91.5016 99.7225 85.8144 99.2492C84.2718 97.3648 83.201 95.1394 82.691 92.7581C87.3529 90.901 90.7648 86.8196 91.766 81.9024C94.4683 81.0209 96.4073 78.6431 96.7271 75.8186C97.0468 72.9942 95.6884 70.2431 93.2515 68.7798C94.6606 66.0214 95.0142 62.8434 94.2459 59.8427C91.5483 50.0226 83.5789 50.3589 75.8588 50.6734C74.3152 50.7387 72.7136 50.8065 71.0491 50.8065C59.7822 50.8065 55.2265 46.679 55.2023 46.6597C54.5521 46.023 53.5997 45.805 52.7373 46.0956C51.8749 46.3861 51.2484 47.136 51.116 48.0363C51.0193 48.6895 49.1467 62.1629 55.7636 69.4863C53.7689 71.1917 52.8501 73.841 53.3607 76.4153C53.8713 78.9895 55.7318 81.0876 58.2265 81.9024C59.2278 86.8196 62.6397 90.901 67.3015 92.7581C66.7916 95.1394 65.7208 97.3648 64.1781 99.2492C58.491 99.7225 53.6016 103.467 51.6628 108.835C36.8313 98.6193 30.3706 79.9428 35.7198 62.7464C41.0689 45.55 56.9835 33.8336 74.9927 33.8336C93.0018 33.8336 108.916 45.55 114.266 62.7464C119.615 79.9428 113.154 98.6193 98.3225 108.835H98.3298Z" fill="white"/>
</svg>
