<svg width="150" height="150" viewBox="0 0 150 150" fill="none" xmlns="http://www.w3.org/2000/svg">
<path d="M147.5 72.5H142.438C141.087 37.2103 112.79 8.91256 77.5 7.5625V2.5C77.5 1.11929 76.3807 0 75 0C73.6193 0 72.5 1.11929 72.5 2.5V7.5625C37.2103 8.91256 8.91256 37.2103 7.5625 72.5H2.5C1.11929 72.5 0 73.6193 0 75C0 76.3807 1.11929 77.5 2.5 77.5H7.5625C8.91256 112.79 37.2103 141.087 72.5 142.438V147.5C72.5 148.881 73.6193 150 75 150C76.3807 150 77.5 148.881 77.5 147.5V142.438C112.79 141.087 141.087 112.79 142.438 77.5H147.5C148.881 77.5 150 76.3807 150 75C150 73.6193 148.881 72.5 147.5 72.5ZM137.438 72.5H132.438C131.106 42.7279 107.272 18.8942 77.5 17.5625V12.5625C110.03 13.9046 136.095 39.9696 137.438 72.5ZM122.5 77.5H127.37C126.06 104.481 104.481 126.061 77.5 127.373V122.5C77.5 121.119 76.3807 120 75 120C73.6193 120 72.5 121.119 72.5 122.5V127.37C45.5185 126.06 23.9392 104.481 22.6275 77.5H27.5C28.8807 77.5 30 76.3807 30 75C30 73.6193 28.8807 72.5 27.5 72.5H22.6275C23.9379 45.5176 45.5176 23.9379 72.5 22.6275V27.5C72.5 28.8807 73.6193 30 75 30C76.3807 30 77.5 28.8807 77.5 27.5V22.6275C104.482 23.9379 126.062 45.5176 127.373 72.5H122.5C121.119 72.5 120 73.6193 120 75C120 76.3807 121.119 77.5 122.5 77.5ZM72.5 12.5625V17.5625C42.7279 18.8942 18.8942 42.7279 17.5625 72.5H12.5625C13.9046 39.9696 39.9696 13.9046 72.5 12.5625ZM12.5625 77.5H17.5625C18.8942 107.272 42.7279 131.106 72.5 132.438V137.438C39.9696 136.095 13.9046 110.03 12.5625 77.5ZM77.5 137.438V132.438C107.272 131.106 131.106 107.272 132.438 77.5H137.438C136.095 110.03 110.03 136.095 77.5 137.438Z" fill="white"/>
<path d="M75 35C52.9086 35 35 52.9086 35 75C35 97.0914 52.9086 115 75 115C97.0914 115 115 97.0914 115 75C114.974 52.9195 97.0805 35.0262 75 35ZM75 40C88.554 40.0181 100.879 47.8601 106.638 60.13C106.095 60.0514 105.548 60.008 105 60C99.7576 59.9768 95.0629 63.2413 93.2595 68.1638C91.4561 73.0863 92.9309 78.6111 96.9475 81.98C94.0734 83.4784 91.6692 85.7416 90 88.52C88.3336 85.7389 85.9321 83.4716 83.06 81.9675C87.0694 78.5799 88.5353 73.0482 86.7298 68.1196C84.9242 63.1909 80.2319 59.9153 74.9829 59.9194C69.7339 59.9234 65.0467 63.2063 63.2487 68.1378C61.4508 73.0692 62.9253 78.5986 66.94 81.98C64.0687 83.4795 61.6671 85.7426 60 88.52C58.3336 85.7389 55.9321 83.4716 53.06 81.9675C57.0676 78.5955 58.5351 73.0752 56.731 68.1582C54.927 63.2412 50.2375 59.98 45 60C44.4519 60.008 43.905 60.0514 43.3625 60.13C49.121 47.8601 61.446 40.0181 75 40ZM97.5 72.5C97.5 68.3579 100.858 65 105 65C106.338 65.0042 107.65 65.3695 108.798 66.0575C109.585 68.9734 109.99 71.9796 110 75C110 76.0725 109.935 77.13 109.84 78.18C108.502 79.3563 106.781 80.0035 105 80C103.011 80 101.103 79.2098 99.6967 77.8033C98.2902 76.3968 97.5 74.4891 97.5 72.5ZM67.5 72.5C67.5 68.3579 70.8579 65 75 65C79.1421 65 82.5 68.3579 82.5 72.5C82.5 76.6421 79.1421 80 75 80C70.8579 80 67.5 76.6421 67.5 72.5ZM40 75C40.0103 71.9796 40.4146 68.9734 41.2025 66.0575C42.35 65.3695 43.662 65.0042 45 65C49.1421 65 52.5 68.3579 52.5 72.5C52.5 76.6421 49.1421 80 45 80C43.2188 80.0035 41.4976 79.3563 40.16 78.18C40.065 77.13 40 76.0725 40 75ZM41.315 84.3775C42.5047 84.7705 43.7472 84.9804 45 85C51.8984 85.0124 57.4876 90.6016 57.5 97.5V105.265C49.5898 100.677 43.7827 93.1827 41.315 84.3775ZM62.5 107.653V97.5C62.5083 90.5999 68.0999 85.0083 75 85C81.8984 85.0124 87.4876 90.6016 87.5 97.5V107.653C79.4606 110.782 70.5395 110.782 62.5 107.653ZM92.5 105.265V97.5C92.5083 90.5999 98.0999 85.0083 105 85C106.253 84.9804 107.495 84.7705 108.685 84.3775C106.217 93.1827 100.41 100.677 92.5 105.265Z" fill="white"/>
</svg>
